# xmcd
#
# Track frame offsets: 
#        150
#        13475
#        27345
#        40970
#        55125
#        66920
#        78697
#        91375
#        106275
#        119950
#        134220
#        147802
#        158860
#        172352
#        188070
#        197740
#        208860
#        221705
#        232277
#        245042
#        258025
#        276110
#        289117
#        304645
#        314827
#        328122
#
# Disc length: 4560 seconds
#
# Revision: 3
# Processed by: cddbd v1.5.2PL0 Copyright (c) Steve Scherf et al.
# Submitted via: ExactAudioCopyFreeDBPlugin 1.0
#
DISCID=ae11ce1a
DTITLE=Etta James - Etta James:  The Chess Box, 1960-1974  [box set]
DYEAR=2000
DGENRE=Rhythm and Blues
TTITLE0=All I Could Do is Cry
TTITLE1=My Dearest Darling
TTITLE2=If I Can't Have You
TTITLE3=I Just Want to Make Love to You
TTITLE4=Anything to Say You're Mine
TTITLE5=In My Diary
TTITLE6=Spoonful
TTITLE7=A Sunday Kind of Love
TTITLE8=At Last
TTITLE9=Stormy Weather
TTITLE10=Trust in Me
TTITLE11=Don't Cry Baby
TTITLE12=Fool That I Am
TTITLE13=One For My Baby (And One More for the Road)
TTITLE14=Waiting for Charlie (To Come Home)
TTITLE15=Don't Get Around Much Anymore
TTITLE16=Next Door to the Blues
TTITLE17=I Don't Want It
TTITLE18=Something's Got a Hold on Me
TTITLE19=Stop the Wedding
TTITLE20=These Foolish Things (Remind Me of You)
TTITLE21=You Got Me Where You Want Me
TTITLE22=I Want to Be Loved (But Only By You)
TTITLE23=Prisoner of Love
TTITLE24=Pushover
TTITLE25=Be Honest with Me
EXTD=
EXTT0=
EXTT1=
EXTT2=
EXTT3=
EXTT4=
EXTT5=
EXTT6=
EXTT7=
EXTT8=
EXTT9=
EXTT10=
EXTT11=
EXTT12=
EXTT13=
EXTT14=
EXTT15=
EXTT16=
EXTT17=
EXTT18=
EXTT19=
EXTT20=
EXTT21=
EXTT22=
EXTT23=
EXTT24=
EXTT25=
PLAYORDER=
